<?xml version="1.0" encoding="UTF-8"?>
<svg xmlns="http://www.w3.org/2000/svg" xmlns:xlink="http://www.w3.org/1999/xlink" width="25px" height="25px" viewBox="0 0 25 25" version="1.1">
<g id="surface1">
<path style=" stroke:none;fill-rule:nonzero;fill:rgb(86.274511%,15.294118%,17.647059%);fill-opacity:1;" d="M 19.800781 0 L 5.199219 0 C 2.300781 0 0 2.300781 0 5.199219 L 0 19.800781 C 0 22.699219 2.300781 25 5.199219 25 L 19.800781 25 C 22.699219 25 25 22.699219 25 19.800781 L 25 5.199219 C 25 2.300781 22.699219 0 19.800781 0 Z M 12.5 17.398438 C 12 17.398438 11.5 17.398438 11.101562 17.300781 C 10.300781 17.898438 9.300781 18.5 8.5 19.101562 C 8.5 19.101562 8.300781 19.199219 8.199219 19.101562 C 8 19 8 18.898438 8 18.800781 C 8.199219 18.199219 8.398438 17.300781 8.601562 16.5 C 6.601562 15.5 5.398438 13.699219 5.398438 11.601562 C 5.398438 11 5.5 10.398438 5.800781 9.800781 C 5.800781 9.800781 5.800781 9.699219 5.800781 9.699219 C 6.800781 7.398438 9.398438 5.800781 12.601562 5.800781 C 16.601562 5.800781 19.800781 8.398438 19.800781 11.601562 C 19.601562 14.800781 16.398438 17.398438 12.5 17.398438 Z M 12.5 17.398438 "/>
</g>
</svg>
